M48
;Layer_Color=9474304
;FILE_FORMAT=2:4
INCH,TZ
;TYPE=PLATED
T1F00S00C0.0120
T2F00S00C0.0354
;TYPE=NON_PLATED
T3F00S00C0.0276
%
T01
X37350Y33923
X38675Y34095
X38267Y35129
X38900Y36045
X40480Y36520
X41650Y36750
X42100Y38250
X38650Y38750
X40510Y34910
X40240Y34110
X45670Y33920
X45630Y34390
X44820Y36790
X45710Y37700
X47780Y35365
X48587Y34885
X48920Y36302
X49910Y36960
T02
X42650Y34250
Y35250
X43650
Y34250
X44650
Y35250
X43650Y37200
X42650
Y38200
X43650
Y39200
X42650
Y40200
X43650
Y41200
X42650
T03
X36012Y33907
X36721
M30
