G04*
G04 #@! TF.GenerationSoftware,Altium Limited,Altium Designer,18.1.9 (240)*
G04*
G04 Layer_Color=255*
%FSLAX24Y24*%
%MOIN*%
G70*
G01*
G75*
%ADD16R,0.0531X0.0157*%
%ADD17R,0.0630X0.0827*%
%ADD18R,0.0748X0.0709*%
%ADD19R,0.0748X0.0748*%
%ADD20R,0.0413X0.0551*%
%ADD21R,0.0394X0.0551*%
%ADD22R,0.0236X0.0413*%
%ADD23R,0.0551X0.0591*%
G04:AMPARAMS|DCode=24|XSize=61.4mil|YSize=21.7mil|CornerRadius=2.7mil|HoleSize=0mil|Usage=FLASHONLY|Rotation=0.000|XOffset=0mil|YOffset=0mil|HoleType=Round|Shape=RoundedRectangle|*
%AMROUNDEDRECTD24*
21,1,0.0614,0.0162,0,0,0.0*
21,1,0.0560,0.0217,0,0,0.0*
1,1,0.0054,0.0280,-0.0081*
1,1,0.0054,-0.0280,-0.0081*
1,1,0.0054,-0.0280,0.0081*
1,1,0.0054,0.0280,0.0081*
%
%ADD24ROUNDEDRECTD24*%
G04:AMPARAMS|DCode=25|XSize=61.4mil|YSize=21.7mil|CornerRadius=2.7mil|HoleSize=0mil|Usage=FLASHONLY|Rotation=90.000|XOffset=0mil|YOffset=0mil|HoleType=Round|Shape=RoundedRectangle|*
%AMROUNDEDRECTD25*
21,1,0.0614,0.0162,0,0,90.0*
21,1,0.0560,0.0217,0,0,90.0*
1,1,0.0054,0.0081,0.0280*
1,1,0.0054,0.0081,-0.0280*
1,1,0.0054,-0.0081,-0.0280*
1,1,0.0054,-0.0081,0.0280*
%
%ADD25ROUNDEDRECTD25*%
%ADD26R,0.0433X0.0492*%
%ADD45R,0.0591X0.0591*%
%ADD46C,0.0591*%
%ADD47C,0.0276*%
%ADD48R,0.0591X0.0591*%
D16*
X37903Y37078D02*
D03*
Y37333D02*
D03*
Y36822D02*
D03*
Y37589D02*
D03*
Y36566D02*
D03*
D17*
X37854Y38298D02*
D03*
Y35857D02*
D03*
D18*
X36850Y38574D02*
D03*
Y35582D02*
D03*
D19*
Y37550D02*
D03*
Y36605D02*
D03*
D20*
X36081Y33198D02*
D03*
Y34616D02*
D03*
X36652Y33198D02*
D03*
Y34616D02*
D03*
D21*
X40626Y33617D02*
D03*
X41374D02*
D03*
X41000Y34483D02*
D03*
D22*
X39400Y34612D02*
D03*
X39774Y33588D02*
D03*
X39026D02*
D03*
D23*
X39693Y35789D02*
D03*
X40481D02*
D03*
Y37045D02*
D03*
X39693D02*
D03*
X47013Y38125D02*
D03*
X46225D02*
D03*
X48587D02*
D03*
X49375D02*
D03*
X39693Y38300D02*
D03*
X40481D02*
D03*
D24*
X49446Y36302D02*
D03*
Y35987D02*
D03*
Y35672D02*
D03*
Y35357D02*
D03*
Y35043D02*
D03*
Y34728D02*
D03*
Y34413D02*
D03*
Y34098D02*
D03*
X46154D02*
D03*
Y34413D02*
D03*
Y34728D02*
D03*
Y35043D02*
D03*
Y35357D02*
D03*
Y35672D02*
D03*
Y35987D02*
D03*
Y36302D02*
D03*
D25*
X46698Y36846D02*
D03*
X47013D02*
D03*
X47328D02*
D03*
X47643D02*
D03*
X47957D02*
D03*
X48272D02*
D03*
X48587D02*
D03*
X48902D02*
D03*
Y33554D02*
D03*
X48587D02*
D03*
X48272D02*
D03*
X47957D02*
D03*
X47643D02*
D03*
X47328D02*
D03*
X47013D02*
D03*
X46698D02*
D03*
D26*
X37950Y33387D02*
D03*
Y34313D02*
D03*
D45*
X42650Y34250D02*
D03*
D46*
Y35250D02*
D03*
X43650Y34250D02*
D03*
Y35250D02*
D03*
X44650Y34250D02*
D03*
Y35250D02*
D03*
X43650Y37200D02*
D03*
X42650D02*
D03*
X43650Y38200D02*
D03*
X42650D02*
D03*
X43650Y39200D02*
D03*
X42650D02*
D03*
X43650Y40200D02*
D03*
X42650D02*
D03*
X43650Y41200D02*
D03*
D47*
X36012Y33907D02*
D03*
X36721D02*
D03*
D48*
X42650Y41200D02*
D03*
M02*
