G04*
G04 #@! TF.GenerationSoftware,Altium Limited,Altium Designer,18.1.9 (240)*
G04*
G04 Layer_Color=2752767*
%FSLAX24Y24*%
%MOIN*%
G70*
G01*
G75*
%ADD14C,0.0020*%
%ADD52C,0.0027*%
D14*
X42570Y34170D02*
Y34330D01*
X42730D01*
Y34170D01*
X42570D01*
Y35170D02*
Y35330D01*
X42730D01*
Y35170D01*
X42570D01*
X43570Y34170D02*
Y34330D01*
X43730D01*
Y34170D01*
X43570D01*
Y35170D02*
Y35330D01*
X43730D01*
Y35170D01*
X43570D01*
X44570Y34170D02*
Y34330D01*
X44730D01*
Y34170D01*
X44570D01*
Y35170D02*
Y35330D01*
X44730D01*
Y35170D01*
X44570D01*
X43570Y37120D02*
Y37280D01*
X43730D01*
Y37120D01*
X43570D01*
X42570D02*
Y37280D01*
X42730D01*
Y37120D01*
X42570D01*
X43570Y38120D02*
Y38280D01*
X43730D01*
Y38120D01*
X43570D01*
X42570D02*
Y38280D01*
X42730D01*
Y38120D01*
X42570D01*
X43570Y39120D02*
Y39280D01*
X43730D01*
Y39120D01*
X43570D01*
X42570D02*
Y39280D01*
X42730D01*
Y39120D01*
X42570D01*
X43570Y40120D02*
Y40280D01*
X43730D01*
Y40120D01*
X43570D01*
X42570D02*
Y40280D01*
X42730D01*
Y40120D01*
X42570D01*
X43570Y41120D02*
Y41280D01*
X43730D01*
Y41120D01*
X43570D01*
X42570D02*
Y41280D01*
X42730D01*
Y41120D01*
X42570D01*
X37350Y33843D02*
X37270Y34003D01*
X37430D01*
X37350Y33843D01*
X38267Y35049D02*
X38187Y35209D01*
X38347D01*
X38267Y35049D01*
X41650Y36670D02*
X41570Y36830D01*
X41730D01*
X41650Y36670D01*
X38650Y38670D02*
X38570Y38830D01*
X38730D01*
X38650Y38670D01*
X38900Y35965D02*
X38820Y36125D01*
X38980D01*
X38900Y35965D01*
X40480Y36440D02*
X40400Y36600D01*
X40560D01*
X40480Y36440D01*
X47780Y35285D02*
X47700Y35445D01*
X47860D01*
X47780Y35285D01*
X45670Y33840D02*
X45590Y34000D01*
X45750D01*
X45670Y33840D01*
X45630Y34310D02*
X45550Y34470D01*
X45710D01*
X45630Y34310D01*
X42100Y38170D02*
X42020Y38330D01*
X42180D01*
X42100Y38170D01*
X38675Y34015D02*
X38595Y34175D01*
X38755D01*
X38675Y34015D01*
X49910Y36880D02*
X49830Y37040D01*
X49990D01*
X49910Y36880D01*
X40510Y34830D02*
X40430Y34990D01*
X40590D01*
X40510Y34830D01*
X48587Y34805D02*
X48507Y34965D01*
X48667D01*
X48587Y34805D01*
X45710Y37620D02*
X45630Y37780D01*
X45790D01*
X45710Y37620D01*
X44820Y36710D02*
X44740Y36870D01*
X44900D01*
X44820Y36710D01*
X40240Y34030D02*
X40160Y34190D01*
X40320D01*
X40240Y34030D01*
X48920Y36222D02*
X48840Y36382D01*
X49000D01*
X48920Y36222D01*
D52*
X36092Y33907D02*
G03*
X36092Y33907I-80J0D01*
G01*
X36801D02*
G03*
X36801Y33907I-80J0D01*
G01*
M02*
