G04*
G04 #@! TF.GenerationSoftware,Altium Limited,Altium Designer,18.1.9 (240)*
G04*
G04 Layer_Color=32896*
%FSLAX24Y24*%
%MOIN*%
G70*
G01*
G75*
%ADD13C,0.0060*%
D13*
X50250Y33250D02*
Y32950D01*
X50100D01*
X50050Y33000D01*
Y33200D01*
X50100Y33250D01*
X50250D01*
X49800Y32950D02*
X49900D01*
X49950Y33000D01*
Y33100D01*
X49900Y33150D01*
X49800D01*
X49750Y33100D01*
Y33050D01*
X49950D01*
X49650Y32950D02*
X49500D01*
X49450Y33000D01*
X49500Y33050D01*
X49600D01*
X49650Y33100D01*
X49600Y33150D01*
X49450D01*
X49350Y32950D02*
X49250D01*
X49300D01*
Y33150D01*
X49350D01*
X49000Y32850D02*
X48950D01*
X48900Y32900D01*
Y33150D01*
X49050D01*
X49100Y33100D01*
Y33000D01*
X49050Y32950D01*
X48900D01*
X48800D02*
Y33150D01*
X48651D01*
X48601Y33100D01*
Y32950D01*
X48351D02*
X48451D01*
X48501Y33000D01*
Y33100D01*
X48451Y33150D01*
X48351D01*
X48301Y33100D01*
Y33050D01*
X48501D01*
X48001Y33250D02*
Y32950D01*
X48151D01*
X48201Y33000D01*
Y33100D01*
X48151Y33150D01*
X48001D01*
X47601Y33250D02*
Y32950D01*
X47451D01*
X47401Y33000D01*
Y33050D01*
Y33100D01*
X47451Y33150D01*
X47601D01*
X47301D02*
Y33000D01*
X47251Y32950D01*
X47101D01*
Y32900D01*
X47151Y32850D01*
X47201D01*
X47101Y32950D02*
Y33150D01*
X46501Y33200D02*
X46551Y33250D01*
X46651D01*
X46701Y33200D01*
Y33000D01*
X46651Y32950D01*
X46551D01*
X46501Y33000D01*
X46401Y33150D02*
Y32950D01*
Y33050D01*
X46351Y33100D01*
X46301Y33150D01*
X46251D01*
X46101D02*
Y33000D01*
X46051Y32950D01*
X45901D01*
Y32900D01*
X45951Y32850D01*
X46001D01*
X45901Y32950D02*
Y33150D01*
X45801Y32950D02*
X45651D01*
X45602Y33000D01*
X45651Y33050D01*
X45751D01*
X45801Y33100D01*
X45751Y33150D01*
X45602D01*
X45452Y33200D02*
Y33150D01*
X45502D01*
X45402D01*
X45452D01*
Y33000D01*
X45402Y32950D01*
X45202Y33150D02*
X45102D01*
X45052Y33100D01*
Y32950D01*
X45202D01*
X45252Y33000D01*
X45202Y33050D01*
X45052D01*
X44952Y32950D02*
X44852D01*
X44902D01*
Y33250D01*
X44952D01*
X44652Y33150D02*
X44552D01*
X44502Y33100D01*
Y32950D01*
X44652D01*
X44702Y33000D01*
X44652Y33050D01*
X44502D01*
X44402Y32950D02*
X44252D01*
X44202Y33000D01*
X44252Y33050D01*
X44352D01*
X44402Y33100D01*
X44352Y33150D01*
X44202D01*
X43952Y32950D02*
X44052D01*
X44102Y33000D01*
Y33100D01*
X44052Y33150D01*
X43952D01*
X43902Y33100D01*
Y33050D01*
X44102D01*
X43802Y33150D02*
Y32950D01*
Y33050D01*
X43752Y33100D01*
X43702Y33150D01*
X43652D01*
M02*
