G04*
G04 #@! TF.GenerationSoftware,Altium Limited,Altium Designer,18.1.9 (240)*
G04*
G04 Layer_Color=16711935*
%FSLAX24Y24*%
%MOIN*%
G70*
G01*
G75*
%ADD38R,0.0671X0.0671*%
%ADD39C,0.0671*%
%ADD40C,0.0356*%
%ADD41R,0.0671X0.0671*%
%ADD42C,0.0320*%
D38*
X42650Y34250D02*
D03*
D39*
Y35250D02*
D03*
X43650Y34250D02*
D03*
Y35250D02*
D03*
X44650Y34250D02*
D03*
Y35250D02*
D03*
X43650Y37200D02*
D03*
X42650D02*
D03*
X43650Y38200D02*
D03*
X42650D02*
D03*
X43650Y39200D02*
D03*
X42650D02*
D03*
X43650Y40200D02*
D03*
X42650D02*
D03*
X43650Y41200D02*
D03*
D40*
X36012Y33907D02*
D03*
X36721D02*
D03*
D41*
X42650Y41200D02*
D03*
D42*
X37350Y33923D02*
D03*
X38267Y35129D02*
D03*
X41650Y36750D02*
D03*
X38650Y38750D02*
D03*
X38900Y36045D02*
D03*
X40480Y36520D02*
D03*
X47780Y35365D02*
D03*
X45670Y33920D02*
D03*
X45630Y34390D02*
D03*
X42100Y38250D02*
D03*
X38675Y34095D02*
D03*
X49910Y36960D02*
D03*
X40510Y34910D02*
D03*
X48587Y34885D02*
D03*
X45710Y37700D02*
D03*
X44820Y36790D02*
D03*
X40240Y34110D02*
D03*
X48920Y36302D02*
D03*
M02*
