G04*
G04 #@! TF.GenerationSoftware,Altium Limited,Altium Designer,18.1.9 (240)*
G04*
G04 Layer_Color=128*
%FSLAX24Y24*%
%MOIN*%
G70*
G01*
G75*
%ADD14C,0.0020*%
D14*
X42473Y34250D02*
X42827D01*
X42650Y34073D02*
Y34427D01*
X42473Y35250D02*
X42827D01*
X42650Y35073D02*
Y35427D01*
X43473Y34250D02*
X43827D01*
X43650Y34073D02*
Y34427D01*
X43473Y35250D02*
X43827D01*
X43650Y35073D02*
Y35427D01*
X44473Y34250D02*
X44827D01*
X44650Y34073D02*
Y34427D01*
X44473Y35250D02*
X44827D01*
X44650Y35073D02*
Y35427D01*
X35874Y33907D02*
X36150D01*
X36012Y33769D02*
Y34045D01*
X36583Y33907D02*
X36858D01*
X36721Y33769D02*
Y34045D01*
X43473Y37200D02*
X43827D01*
X43650Y37023D02*
Y37377D01*
X42473Y37200D02*
X42827D01*
X42650Y37023D02*
Y37377D01*
X43473Y38200D02*
X43827D01*
X43650Y38023D02*
Y38377D01*
X42473Y38200D02*
X42827D01*
X42650Y38023D02*
Y38377D01*
X43473Y39200D02*
X43827D01*
X43650Y39023D02*
Y39377D01*
X42473Y39200D02*
X42827D01*
X42650Y39023D02*
Y39377D01*
X43473Y40200D02*
X43827D01*
X43650Y40023D02*
Y40377D01*
X42473Y40200D02*
X42827D01*
X42650Y40023D02*
Y40377D01*
X43473Y41200D02*
X43827D01*
X43650Y41023D02*
Y41377D01*
X42473Y41200D02*
X42827D01*
X42650Y41023D02*
Y41377D01*
X37290Y33923D02*
X37410D01*
X37350Y33863D02*
Y33983D01*
X38207Y35129D02*
X38327D01*
X38267Y35069D02*
Y35189D01*
X41590Y36750D02*
X41710D01*
X41650Y36690D02*
Y36810D01*
X38590Y38750D02*
X38710D01*
X38650Y38690D02*
Y38810D01*
X38840Y36045D02*
X38960D01*
X38900Y35985D02*
Y36105D01*
X40420Y36520D02*
X40540D01*
X40480Y36460D02*
Y36580D01*
X47720Y35365D02*
X47840D01*
X47780Y35305D02*
Y35425D01*
X45610Y33920D02*
X45730D01*
X45670Y33860D02*
Y33980D01*
X45570Y34390D02*
X45690D01*
X45630Y34330D02*
Y34450D01*
X42040Y38250D02*
X42160D01*
X42100Y38190D02*
Y38310D01*
X38615Y34095D02*
X38735D01*
X38675Y34035D02*
Y34155D01*
X49850Y36960D02*
X49970D01*
X49910Y36900D02*
Y37020D01*
X40450Y34910D02*
X40570D01*
X40510Y34850D02*
Y34970D01*
X48527Y34885D02*
X48647D01*
X48587Y34825D02*
Y34945D01*
X45650Y37700D02*
X45770D01*
X45710Y37640D02*
Y37760D01*
X44760Y36790D02*
X44880D01*
X44820Y36730D02*
Y36850D01*
X40180Y34110D02*
X40300D01*
X40240Y34050D02*
Y34170D01*
X48860Y36302D02*
X48980D01*
X48920Y36242D02*
Y36362D01*
M02*
