G04*
G04 #@! TF.GenerationSoftware,Altium Limited,Altium Designer,18.1.9 (240)*
G04*
G04 Layer_Color=16711935*
%FSLAX24Y24*%
%MOIN*%
G70*
G01*
G75*
%ADD10C,0.0118*%
%ADD11C,0.0079*%
%ADD12C,0.0050*%
%ADD13C,0.0060*%
%ADD50C,0.0039*%
G36*
X41460Y33539D02*
X41281D01*
Y33770D01*
X41460D01*
Y33539D01*
D02*
G37*
G36*
X40720Y33540D02*
X40540D01*
Y33770D01*
X40720D01*
Y33540D01*
D02*
G37*
G36*
X41090Y34330D02*
X40910D01*
Y34560D01*
X41090D01*
Y34330D01*
D02*
G37*
D10*
X38454Y37629D02*
G03*
X38454Y37629I-39J0D01*
G01*
D11*
X36721Y35285D02*
G03*
X36721Y35285I-39J0D01*
G01*
X45580Y36519D02*
G03*
X45580Y36519I-39J0D01*
G01*
X37989Y32905D02*
G03*
X37989Y32905I-39J0D01*
G01*
D12*
X37992Y35601D02*
Y38554D01*
X36279Y35601D02*
X37992D01*
X35763D02*
X36279D01*
X35763D02*
Y38554D01*
X36279D01*
X37992D01*
X36279Y35601D02*
Y38554D01*
Y34263D02*
Y35601D01*
X35539Y33572D02*
X35736D01*
X35539D02*
Y34242D01*
X35736D01*
Y34596D01*
Y33572D02*
Y34242D01*
Y33218D02*
Y33572D01*
Y33218D02*
X36937D01*
Y34596D01*
X35736D02*
X36937D01*
X46422Y33822D02*
Y36578D01*
X49178Y33822D02*
Y36578D01*
X46422D02*
X49178D01*
X46422Y33822D02*
X49178D01*
X38196Y33456D02*
Y34244D01*
X37704D02*
X38196D01*
X37704Y33456D02*
Y34244D01*
Y33456D02*
X38196D01*
D13*
X41560Y33790D02*
Y34310D01*
X40440Y33790D02*
X41560D01*
X40440D02*
Y34310D01*
X41560D01*
D50*
X39664Y35514D02*
Y36065D01*
X40510Y35514D02*
Y36065D01*
X39664D02*
X40510D01*
X39664Y35514D02*
X40510D01*
Y36769D02*
Y37320D01*
X39664Y36769D02*
Y37320D01*
Y36769D02*
X40510D01*
X39664Y37320D02*
X40510D01*
X47042Y37849D02*
Y38401D01*
X46196Y37849D02*
Y38401D01*
Y37849D02*
X47042D01*
X46196Y38401D02*
X47042D01*
X48558Y37849D02*
Y38401D01*
X49404Y37849D02*
Y38401D01*
X48558D02*
X49404D01*
X48558Y37849D02*
X49404D01*
X39664Y38024D02*
Y38576D01*
X40510Y38024D02*
Y38576D01*
X39664D02*
X40510D01*
X39664Y38024D02*
X40510D01*
M02*
