G04*
G04 #@! TF.GenerationSoftware,Altium Limited,Altium Designer,18.1.9 (240)*
G04*
G04 Layer_Physical_Order=2*
G04 Layer_Color=16711680*
%FSLAX24Y24*%
%MOIN*%
G70*
G01*
G75*
%ADD43C,0.0100*%
%ADD44C,0.0150*%
%ADD45R,0.0591X0.0591*%
%ADD46C,0.0591*%
%ADD47C,0.0276*%
%ADD48R,0.0591X0.0591*%
%ADD49C,0.0240*%
G36*
X44150Y39050D02*
X50400D01*
Y32800D01*
X35767D01*
Y39050D01*
X42150D01*
Y41700D01*
X44150D01*
Y39050D01*
D02*
G37*
%LPC*%
G36*
X42995Y41545D02*
X42305D01*
Y40855D01*
X42995D01*
Y41545D01*
D02*
G37*
G36*
X43650Y41548D02*
X43560Y41536D01*
X43476Y41502D01*
X43404Y41446D01*
X43348Y41374D01*
X43314Y41290D01*
X43302Y41200D01*
X43314Y41110D01*
X43348Y41026D01*
X43404Y40954D01*
X43476Y40898D01*
X43560Y40864D01*
X43650Y40852D01*
X43740Y40864D01*
X43824Y40898D01*
X43896Y40954D01*
X43952Y41026D01*
X43986Y41110D01*
X43998Y41200D01*
X43986Y41290D01*
X43952Y41374D01*
X43896Y41446D01*
X43824Y41502D01*
X43740Y41536D01*
X43650Y41548D01*
D02*
G37*
G36*
Y40548D02*
X43560Y40536D01*
X43476Y40502D01*
X43404Y40446D01*
X43348Y40374D01*
X43314Y40290D01*
X43302Y40200D01*
X43314Y40110D01*
X43348Y40026D01*
X43404Y39954D01*
X43476Y39898D01*
X43560Y39864D01*
X43650Y39852D01*
X43740Y39864D01*
X43824Y39898D01*
X43896Y39954D01*
X43952Y40026D01*
X43986Y40110D01*
X43998Y40200D01*
X43986Y40290D01*
X43952Y40374D01*
X43896Y40446D01*
X43824Y40502D01*
X43740Y40536D01*
X43650Y40548D01*
D02*
G37*
G36*
X42650Y39548D02*
X42560Y39536D01*
X42476Y39502D01*
X42404Y39446D01*
X42348Y39374D01*
X42314Y39290D01*
X42302Y39200D01*
X42314Y39110D01*
X42348Y39026D01*
X42404Y38954D01*
X42476Y38898D01*
X42560Y38864D01*
X42650Y38852D01*
X42740Y38864D01*
X42824Y38898D01*
X42896Y38954D01*
X42952Y39026D01*
X42986Y39110D01*
X42998Y39200D01*
X42986Y39290D01*
X42952Y39374D01*
X42896Y39446D01*
X42824Y39502D01*
X42740Y39536D01*
X42650Y39548D01*
D02*
G37*
G36*
X43650Y38548D02*
X43560Y38536D01*
X43476Y38502D01*
X43404Y38446D01*
X43348Y38374D01*
X43314Y38290D01*
X43302Y38200D01*
X43314Y38110D01*
X43348Y38026D01*
X43404Y37954D01*
X43476Y37898D01*
X43560Y37864D01*
X43650Y37852D01*
X43740Y37864D01*
X43824Y37898D01*
X43896Y37954D01*
X43952Y38026D01*
X43986Y38110D01*
X43998Y38200D01*
X43986Y38290D01*
X43952Y38374D01*
X43896Y38446D01*
X43824Y38502D01*
X43740Y38536D01*
X43650Y38548D01*
D02*
G37*
G36*
X42650Y40548D02*
X42560Y40536D01*
X42476Y40502D01*
X42404Y40446D01*
X42348Y40374D01*
X42314Y40290D01*
X42302Y40200D01*
X42314Y40110D01*
X42348Y40026D01*
X42404Y39954D01*
X42476Y39898D01*
X42560Y39864D01*
X42650Y39852D01*
X42740Y39864D01*
X42812Y39894D01*
X43098Y39608D01*
Y38940D01*
X43106Y38901D01*
X43128Y38868D01*
X43328Y38668D01*
X43361Y38646D01*
X43400Y38638D01*
X45318D01*
X47678Y36278D01*
Y35501D01*
X47657Y35488D01*
X47620Y35431D01*
X47607Y35365D01*
X47620Y35299D01*
X47657Y35242D01*
X47658Y35242D01*
X47643Y35192D01*
X47572D01*
X47442Y35322D01*
X47409Y35344D01*
X47370Y35352D01*
X44981D01*
X44952Y35424D01*
X44896Y35496D01*
X44824Y35552D01*
X44740Y35586D01*
X44650Y35598D01*
X44560Y35586D01*
X44488Y35556D01*
X44222Y35822D01*
X44189Y35844D01*
X44150Y35852D01*
X44055D01*
X44050Y35902D01*
X44069Y35906D01*
X44102Y35928D01*
X44796Y36621D01*
X44820Y36617D01*
X44886Y36630D01*
X44943Y36667D01*
X44980Y36724D01*
X44993Y36790D01*
X44980Y36856D01*
X44943Y36913D01*
X44886Y36950D01*
X44820Y36963D01*
X44754Y36950D01*
X44697Y36913D01*
X44660Y36856D01*
X44647Y36790D01*
X44651Y36766D01*
X43988Y36102D01*
X42803D01*
X42782Y36152D01*
X43513Y36883D01*
X43560Y36864D01*
X43650Y36852D01*
X43740Y36864D01*
X43824Y36898D01*
X43896Y36954D01*
X43952Y37026D01*
X43986Y37110D01*
X43998Y37200D01*
X43986Y37290D01*
X43952Y37374D01*
X43896Y37446D01*
X43824Y37502D01*
X43740Y37536D01*
X43650Y37548D01*
X43560Y37536D01*
X43476Y37502D01*
X43404Y37446D01*
X43348Y37374D01*
X43314Y37290D01*
X43302Y37200D01*
X43314Y37110D01*
X43333Y37063D01*
X42622Y36352D01*
X42228D01*
X41822Y36759D01*
X41810Y36816D01*
X41773Y36873D01*
X41716Y36910D01*
X41650Y36923D01*
X41584Y36910D01*
X41527Y36873D01*
X41490Y36816D01*
X41477Y36750D01*
X41490Y36684D01*
X41527Y36627D01*
X41584Y36590D01*
X41641Y36578D01*
X41821Y36399D01*
X41802Y36352D01*
X40625D01*
X40612Y36379D01*
X40606Y36402D01*
X40640Y36454D01*
X40653Y36520D01*
X40640Y36586D01*
X40603Y36643D01*
X40546Y36680D01*
X40489Y36692D01*
X40327Y36853D01*
Y37637D01*
X40458Y37768D01*
X40679D01*
X41337Y37110D01*
X41378Y37082D01*
X41427Y37073D01*
X42329D01*
X42348Y37026D01*
X42404Y36954D01*
X42476Y36898D01*
X42560Y36864D01*
X42650Y36852D01*
X42740Y36864D01*
X42824Y36898D01*
X42896Y36954D01*
X42952Y37026D01*
X42986Y37110D01*
X42998Y37200D01*
X42986Y37290D01*
X42952Y37374D01*
X42896Y37446D01*
X42824Y37502D01*
X42740Y37536D01*
X42650Y37548D01*
X42560Y37536D01*
X42476Y37502D01*
X42404Y37446D01*
X42348Y37374D01*
X42329Y37327D01*
X41480D01*
X40839Y37968D01*
X40860Y38018D01*
X41728D01*
X42118Y37628D01*
X42151Y37606D01*
X42190Y37598D01*
X45574D01*
X45587Y37577D01*
X45644Y37540D01*
X45710Y37527D01*
X45776Y37540D01*
X45833Y37577D01*
X45870Y37634D01*
X45883Y37700D01*
X45870Y37766D01*
X45833Y37823D01*
X45776Y37860D01*
X45710Y37873D01*
X45644Y37860D01*
X45587Y37823D01*
X45574Y37802D01*
X42232D01*
X41866Y38168D01*
X41885Y38214D01*
X41933Y38218D01*
X41940Y38184D01*
X41977Y38127D01*
X42034Y38090D01*
X42100Y38077D01*
X42166Y38090D01*
X42223Y38127D01*
X42255Y38175D01*
X42290Y38174D01*
X42306Y38169D01*
X42314Y38110D01*
X42348Y38026D01*
X42404Y37954D01*
X42476Y37898D01*
X42560Y37864D01*
X42650Y37852D01*
X42740Y37864D01*
X42824Y37898D01*
X42896Y37954D01*
X42952Y38026D01*
X42986Y38110D01*
X42998Y38200D01*
X42986Y38290D01*
X42952Y38374D01*
X42896Y38446D01*
X42824Y38502D01*
X42740Y38536D01*
X42650Y38548D01*
X42560Y38536D01*
X42488Y38506D01*
X42282Y38712D01*
X42249Y38734D01*
X42210Y38742D01*
X39030D01*
X38991Y38734D01*
X38958Y38712D01*
X37232Y36986D01*
X37182Y37007D01*
Y37188D01*
X38584Y38590D01*
X38650Y38577D01*
X38716Y38590D01*
X38773Y38627D01*
X38810Y38684D01*
X38823Y38750D01*
X38810Y38816D01*
X38773Y38873D01*
X38716Y38910D01*
X38650Y38923D01*
X38584Y38910D01*
X38527Y38873D01*
X38490Y38816D01*
X38482Y38776D01*
X37008Y37302D01*
X36986Y37269D01*
X36978Y37230D01*
Y34470D01*
X36986Y34431D01*
X37008Y34398D01*
X37248Y34158D01*
Y34059D01*
X37227Y34045D01*
X37190Y33989D01*
X37177Y33923D01*
X37190Y33857D01*
X37227Y33800D01*
X37284Y33763D01*
X37350Y33750D01*
X37416Y33763D01*
X37473Y33800D01*
X37510Y33857D01*
X37523Y33923D01*
X37510Y33989D01*
X37473Y34045D01*
X37452Y34059D01*
Y34200D01*
X37444Y34239D01*
X37422Y34272D01*
X37204Y34490D01*
X37208Y34509D01*
X37262Y34526D01*
X38705Y33083D01*
X38738Y33061D01*
X38777Y33053D01*
X44905D01*
X44944Y33061D01*
X44977Y33083D01*
X45646Y33751D01*
X45670Y33747D01*
X45736Y33760D01*
X45793Y33797D01*
X45830Y33854D01*
X45843Y33920D01*
X45830Y33986D01*
X45793Y34043D01*
X45736Y34080D01*
X45670Y34093D01*
X45604Y34080D01*
X45547Y34043D01*
X45510Y33986D01*
X45497Y33920D01*
X45501Y33896D01*
X44862Y33257D01*
X44712D01*
X44691Y33307D01*
X45606Y34221D01*
X45630Y34217D01*
X45696Y34230D01*
X45753Y34267D01*
X45790Y34324D01*
X45803Y34390D01*
X45790Y34456D01*
X45753Y34513D01*
X45745Y34517D01*
X45761Y34567D01*
X46170D01*
X46259Y34478D01*
X46292Y34456D01*
X46331Y34448D01*
X48670D01*
X48709Y34456D01*
X48742Y34478D01*
X48992Y34728D01*
X49014Y34761D01*
X49022Y34800D01*
Y36166D01*
X49043Y36180D01*
X49080Y36236D01*
X49093Y36302D01*
X49080Y36369D01*
X49043Y36425D01*
X48986Y36463D01*
X48920Y36476D01*
X48896Y36471D01*
X48871Y36517D01*
X49212Y36858D01*
X49774D01*
X49787Y36837D01*
X49844Y36800D01*
X49910Y36787D01*
X49976Y36800D01*
X50033Y36837D01*
X50070Y36894D01*
X50083Y36960D01*
X50070Y37026D01*
X50033Y37083D01*
X49976Y37120D01*
X49910Y37133D01*
X49844Y37120D01*
X49787Y37083D01*
X49774Y37062D01*
X49170D01*
X49131Y37054D01*
X49098Y37032D01*
X48538Y36472D01*
X48516Y36439D01*
X48508Y36400D01*
Y35802D01*
X47983Y35277D01*
X47961Y35288D01*
X47942Y35307D01*
X47953Y35365D01*
X47940Y35431D01*
X47903Y35488D01*
X47882Y35501D01*
Y36320D01*
X47874Y36359D01*
X47852Y36392D01*
X45432Y38812D01*
X45399Y38834D01*
X45360Y38842D01*
X43819D01*
X43809Y38892D01*
X43824Y38898D01*
X43896Y38954D01*
X43952Y39026D01*
X43986Y39110D01*
X43998Y39200D01*
X43986Y39290D01*
X43952Y39374D01*
X43896Y39446D01*
X43824Y39502D01*
X43740Y39536D01*
X43650Y39548D01*
X43560Y39536D01*
X43476Y39502D01*
X43404Y39446D01*
X43352Y39379D01*
X43336Y39379D01*
X43302Y39393D01*
Y39650D01*
X43294Y39689D01*
X43272Y39722D01*
X42957Y40038D01*
X42986Y40110D01*
X42998Y40200D01*
X42986Y40290D01*
X42952Y40374D01*
X42896Y40446D01*
X42824Y40502D01*
X42740Y40536D01*
X42650Y40548D01*
D02*
G37*
G36*
X36721Y34099D02*
X36647Y34084D01*
X36585Y34042D01*
X36544Y33980D01*
X36529Y33907D01*
X36544Y33834D01*
X36585Y33772D01*
X36647Y33730D01*
X36721Y33716D01*
X36794Y33730D01*
X36856Y33772D01*
X36897Y33834D01*
X36912Y33907D01*
X36897Y33980D01*
X36856Y34042D01*
X36794Y34084D01*
X36721Y34099D01*
D02*
G37*
G36*
X36012D02*
X35939Y34084D01*
X35877Y34042D01*
X35835Y33980D01*
X35820Y33907D01*
X35835Y33834D01*
X35877Y33772D01*
X35939Y33730D01*
X36012Y33716D01*
X36085Y33730D01*
X36147Y33772D01*
X36189Y33834D01*
X36203Y33907D01*
X36189Y33980D01*
X36147Y34042D01*
X36085Y34084D01*
X36012Y34099D01*
D02*
G37*
%LPD*%
G36*
X42344Y38362D02*
X42333Y38336D01*
X42269Y38310D01*
X42261Y38314D01*
X42260Y38316D01*
X42223Y38373D01*
X42166Y38410D01*
X42100Y38423D01*
X42062Y38416D01*
X42030Y38422D01*
X39270D01*
X39231Y38414D01*
X39198Y38392D01*
X37432Y36626D01*
X37431Y36626D01*
X37382Y36641D01*
Y36848D01*
X39072Y38538D01*
X42168D01*
X42344Y38362D01*
D02*
G37*
G36*
X40298Y37968D02*
X40110Y37780D01*
X40082Y37739D01*
X40073Y37690D01*
Y36800D01*
X40082Y36751D01*
X40110Y36710D01*
X40265Y36555D01*
X40234Y36516D01*
X40185Y36525D01*
X40109D01*
X39844Y36790D01*
X39803Y36818D01*
X39754Y36827D01*
X38540D01*
X38491Y36818D01*
X38450Y36790D01*
X37860Y36200D01*
X37856Y36194D01*
X37806Y36209D01*
Y36414D01*
X39410Y38018D01*
X40277D01*
X40298Y37968D01*
D02*
G37*
G36*
X39766Y36508D02*
X39732Y36472D01*
X39699Y36494D01*
X39660Y36502D01*
X38730D01*
X38691Y36494D01*
X38658Y36472D01*
X38458Y36272D01*
X38436Y36239D01*
X38428Y36200D01*
Y35719D01*
X38436Y35680D01*
X38458Y35647D01*
X38704Y35401D01*
X38683Y35351D01*
X38489D01*
X38450Y35343D01*
X38417Y35321D01*
X38364Y35268D01*
X38334Y35289D01*
X38267Y35302D01*
X38201Y35289D01*
X38145Y35251D01*
X38127Y35225D01*
X38077Y35241D01*
Y36057D01*
X38593Y36573D01*
X39701D01*
X39766Y36508D01*
D02*
G37*
G36*
X39988Y35928D02*
X40021Y35906D01*
X40040Y35902D01*
X40035Y35852D01*
X39042D01*
X39027Y35867D01*
X39023Y35923D01*
X39060Y35979D01*
X39073Y36045D01*
X39060Y36112D01*
X39023Y36168D01*
X38966Y36205D01*
X38900Y36219D01*
X38834Y36205D01*
X38777Y36168D01*
X38740Y36112D01*
X38727Y36045D01*
X38740Y35979D01*
X38777Y35923D01*
X38798Y35909D01*
Y35850D01*
X38806Y35811D01*
X38828Y35778D01*
X38928Y35678D01*
X38961Y35656D01*
X39000Y35648D01*
X44108D01*
X44344Y35412D01*
X44314Y35340D01*
X44302Y35250D01*
X44314Y35160D01*
X44348Y35076D01*
X44404Y35004D01*
X44471Y34952D01*
X44471Y34936D01*
X44457Y34902D01*
X43843D01*
X43829Y34936D01*
X43829Y34952D01*
X43896Y35004D01*
X43952Y35076D01*
X43986Y35160D01*
X43998Y35250D01*
X43986Y35340D01*
X43952Y35424D01*
X43896Y35496D01*
X43824Y35552D01*
X43740Y35586D01*
X43650Y35598D01*
X43560Y35586D01*
X43476Y35552D01*
X43404Y35496D01*
X43348Y35424D01*
X43314Y35340D01*
X43302Y35250D01*
X43314Y35160D01*
X43348Y35076D01*
X43404Y35004D01*
X43471Y34952D01*
X43471Y34936D01*
X43457Y34902D01*
X42843D01*
X42829Y34936D01*
X42829Y34952D01*
X42896Y35004D01*
X42952Y35076D01*
X42986Y35160D01*
X42998Y35250D01*
X42986Y35340D01*
X42952Y35424D01*
X42896Y35496D01*
X42824Y35552D01*
X42740Y35586D01*
X42650Y35598D01*
X42560Y35586D01*
X42476Y35552D01*
X42404Y35496D01*
X42348Y35424D01*
X42319Y35352D01*
X41112D01*
X40943Y35521D01*
X40910Y35543D01*
X40871Y35551D01*
X38842D01*
X38632Y35761D01*
Y36158D01*
X38772Y36298D01*
X39618D01*
X39988Y35928D01*
D02*
G37*
G36*
X47439Y35037D02*
X47418Y34987D01*
X45242D01*
X45203Y34979D01*
X45170Y34957D01*
X45115Y34902D01*
X44843D01*
X44829Y34936D01*
X44829Y34952D01*
X44896Y35004D01*
X44952Y35076D01*
X44981Y35148D01*
X47328D01*
X47439Y35037D01*
D02*
G37*
G36*
X42348Y35076D02*
X42404Y35004D01*
X42471Y34952D01*
X42471Y34936D01*
X42457Y34902D01*
X41271D01*
X41075Y35098D01*
X41096Y35148D01*
X42319D01*
X42348Y35076D01*
D02*
G37*
G36*
X48762Y36233D02*
X48797Y36180D01*
X48818Y36166D01*
Y34871D01*
X48808Y34864D01*
X48786Y34874D01*
X48759Y34893D01*
X48748Y34951D01*
X48710Y35007D01*
X48654Y35045D01*
X48587Y35058D01*
X48521Y35045D01*
X48465Y35007D01*
X48451Y34987D01*
X48052D01*
X48031Y35037D01*
X48682Y35688D01*
X48704Y35721D01*
X48712Y35760D01*
Y36206D01*
X48758Y36233D01*
X48762Y36233D01*
D02*
G37*
G36*
X48465Y34762D02*
X48521Y34725D01*
X48583Y34712D01*
X48597Y34693D01*
X48611Y34665D01*
X48603Y34652D01*
X46373D01*
X46293Y34733D01*
X46301Y34766D01*
X46312Y34783D01*
X48451D01*
X48465Y34762D01*
D02*
G37*
G36*
X41157Y34728D02*
X41190Y34706D01*
X41229Y34698D01*
X45157D01*
X45175Y34701D01*
X45199Y34655D01*
X45116Y34572D01*
X44870D01*
X44831Y34564D01*
X44817Y34555D01*
X44740Y34586D01*
X44650Y34598D01*
X44560Y34586D01*
X44476Y34552D01*
X44404Y34496D01*
X44348Y34424D01*
X44314Y34340D01*
X44302Y34250D01*
X44314Y34160D01*
X44344Y34088D01*
X43912Y33657D01*
X43308D01*
X43287Y33707D01*
X43513Y33933D01*
X43560Y33914D01*
X43650Y33902D01*
X43740Y33914D01*
X43824Y33948D01*
X43896Y34004D01*
X43952Y34076D01*
X43986Y34160D01*
X43998Y34250D01*
X43986Y34340D01*
X43952Y34424D01*
X43896Y34496D01*
X43824Y34552D01*
X43740Y34586D01*
X43650Y34598D01*
X43560Y34586D01*
X43476Y34552D01*
X43404Y34496D01*
X43348Y34424D01*
X43314Y34340D01*
X43302Y34250D01*
X43314Y34160D01*
X43333Y34113D01*
X43127Y33907D01*
X42995D01*
Y34595D01*
X42305D01*
Y34352D01*
X40655D01*
X40552Y34455D01*
X40519Y34477D01*
X40480Y34484D01*
X40335D01*
X40315Y34534D01*
X40519Y34738D01*
X40576Y34750D01*
X40633Y34787D01*
X40670Y34844D01*
X40683Y34910D01*
X40670Y34976D01*
X40633Y35033D01*
X40576Y35070D01*
X40510Y35083D01*
X40444Y35070D01*
X40387Y35033D01*
X40350Y34976D01*
X40338Y34919D01*
X40152Y34732D01*
X40035D01*
X40010Y34727D01*
X38360D01*
X38133Y34954D01*
X38165Y34993D01*
X38201Y34969D01*
X38267Y34955D01*
X38334Y34969D01*
X38390Y35006D01*
X38410Y35036D01*
X38441Y35057D01*
X38531Y35147D01*
X40738D01*
X41157Y34728D01*
D02*
G37*
G36*
X40540Y34178D02*
X40574Y34156D01*
X40613Y34148D01*
X42305D01*
Y33907D01*
X40623D01*
X40412Y34119D01*
X40400Y34176D01*
X40364Y34231D01*
X40366Y34242D01*
X40381Y34281D01*
X40438D01*
X40540Y34178D01*
D02*
G37*
G36*
X45515Y34517D02*
X45507Y34513D01*
X45470Y34456D01*
X45457Y34390D01*
X45462Y34366D01*
X44552Y33457D01*
X44072D01*
X44051Y33507D01*
X44488Y33944D01*
X44560Y33914D01*
X44650Y33902D01*
X44740Y33914D01*
X44824Y33948D01*
X44896Y34004D01*
X44952Y34076D01*
X44986Y34160D01*
X44998Y34250D01*
X44989Y34318D01*
X45024Y34368D01*
X45158D01*
X45197Y34376D01*
X45230Y34398D01*
X45399Y34567D01*
X45499D01*
X45515Y34517D01*
D02*
G37*
G36*
X40100Y34257D02*
X40111Y34223D01*
X40080Y34176D01*
X40067Y34110D01*
X40080Y34044D01*
X40117Y33987D01*
X40174Y33950D01*
X40231Y33938D01*
X40463Y33707D01*
X40442Y33657D01*
X39258D01*
X38844Y34071D01*
X38849Y34095D01*
X38835Y34162D01*
X38798Y34218D01*
X38790Y34223D01*
X38805Y34273D01*
X40089D01*
X40100Y34257D01*
D02*
G37*
G36*
X38141Y34303D02*
X38175Y34281D01*
X38214Y34273D01*
X38545D01*
X38561Y34223D01*
X38553Y34218D01*
X38515Y34162D01*
X38502Y34095D01*
X38515Y34029D01*
X38553Y33973D01*
X38609Y33935D01*
X38675Y33922D01*
X38700Y33927D01*
X39120Y33507D01*
X39099Y33457D01*
X38902D01*
X37634Y34725D01*
X37636Y34737D01*
X37690Y34754D01*
X38141Y34303D01*
D02*
G37*
D43*
X37350Y33923D02*
Y34200D01*
X37080Y34470D02*
X37350Y34200D01*
X37280Y34652D02*
Y36890D01*
Y34652D02*
X38777Y33155D01*
X44905D01*
X38860Y33355D02*
X44595D01*
X37504Y34711D02*
X38860Y33355D01*
X37504Y34711D02*
Y36554D01*
X38214Y34375D02*
X40123D01*
X37704Y34885D02*
X38214Y34375D01*
X38267Y35129D02*
X38369D01*
X37504Y36554D02*
X39270Y38320D01*
X37080Y34470D02*
Y37230D01*
X37280Y36890D02*
X39030Y38640D01*
X37704Y34885D02*
Y36100D01*
Y36182D01*
Y36456D01*
X39368Y38120D01*
X40298Y34380D02*
X40301Y34383D01*
X40128Y34380D02*
X40298D01*
X40123Y34375D02*
X40128Y34380D01*
X40301Y34383D02*
X40480D01*
X44030Y36000D02*
X44820Y36790D01*
X39660Y36400D02*
X40060Y36000D01*
X44030D01*
X42030Y38320D02*
X42100Y38250D01*
X41770Y38120D02*
X42190Y37700D01*
X39368Y38120D02*
X41770D01*
X39270Y38320D02*
X42030D01*
X44905Y33155D02*
X45670Y33920D01*
X44595Y33355D02*
X45630Y34390D01*
X43955Y33555D02*
X44650Y34250D01*
X39216Y33555D02*
X43955D01*
X38675Y34095D02*
X39216Y33555D01*
X38600Y38750D02*
X38650D01*
X37080Y37230D02*
X38600Y38750D01*
X38369Y35129D02*
X38489Y35249D01*
X38900Y35850D02*
Y36045D01*
Y35850D02*
X39000Y35750D01*
X42190Y37700D02*
X45710D01*
X47780Y35365D02*
Y36320D01*
X45360Y38740D02*
X47780Y36320D01*
X43400Y38740D02*
X45360D01*
X43200Y38940D02*
X43400Y38740D01*
X43200Y38940D02*
Y39650D01*
X42650Y40200D02*
X43200Y39650D01*
X39030Y38640D02*
X42210D01*
X42650Y38200D01*
X44150Y35750D02*
X44650Y35250D01*
X39000Y35750D02*
X44150D01*
X44650Y35250D02*
X47370D01*
X47530Y35090D01*
X47940D01*
X48610Y35760D01*
Y36400D01*
X49170Y36960D01*
X49910D01*
X38489Y35249D02*
X40780D01*
X41229Y34800D01*
X45157D01*
X45242Y34885D01*
X48587D01*
X40613Y34250D02*
X42650D01*
X40480Y34383D02*
X40613Y34250D01*
X38730Y36400D02*
X39660D01*
X38530Y36200D02*
X38730Y36400D01*
X38530Y35719D02*
Y36200D01*
Y35719D02*
X38800Y35449D01*
X40871D01*
X41070Y35250D01*
X42650D01*
X44650Y34250D02*
X44870Y34470D01*
X45158D01*
X45357Y34669D01*
X46212D01*
X46331Y34550D01*
X48670D01*
X48920Y34800D01*
Y36302D01*
D44*
X38307Y34600D02*
X40030D01*
X37950Y34957D02*
X38307Y34600D01*
X37950Y36110D02*
X38540Y36700D01*
X37950Y34957D02*
Y36110D01*
X40205Y34605D02*
X40510Y34910D01*
X40030Y34600D02*
X40035Y34605D01*
X40205D01*
X42175Y36225D02*
X42675D01*
X40358D02*
X42175D01*
X41650Y36750D02*
X42175Y36225D01*
X40056Y36398D02*
X40185D01*
X39754Y36700D02*
X40056Y36398D01*
X38540Y36700D02*
X39754D01*
X42675Y36225D02*
X43650Y37200D01*
X40185Y36398D02*
X40358Y36225D01*
X41427Y37200D02*
X42650D01*
X40732Y37895D02*
X41427Y37200D01*
X40405Y37895D02*
X40732D01*
X40200Y37690D02*
X40405Y37895D01*
X43180Y33780D02*
X43650Y34250D01*
X40570Y33780D02*
X43180D01*
X40240Y34110D02*
X40570Y33780D01*
X40200Y36800D02*
Y37690D01*
Y36800D02*
X40480Y36520D01*
D45*
X42650Y34250D02*
D03*
D46*
Y35250D02*
D03*
X43650Y34250D02*
D03*
Y35250D02*
D03*
X44650Y34250D02*
D03*
Y35250D02*
D03*
X43650Y37200D02*
D03*
X42650D02*
D03*
X43650Y38200D02*
D03*
X42650D02*
D03*
X43650Y39200D02*
D03*
X42650D02*
D03*
X43650Y40200D02*
D03*
X42650D02*
D03*
X43650Y41200D02*
D03*
D47*
X36012Y33907D02*
D03*
X36721D02*
D03*
D48*
X42650Y41200D02*
D03*
D49*
X37350Y33923D02*
D03*
X38267Y35129D02*
D03*
X41650Y36750D02*
D03*
X38650Y38750D02*
D03*
X38900Y36045D02*
D03*
X40480Y36520D02*
D03*
X47780Y35365D02*
D03*
X45670Y33920D02*
D03*
X45630Y34390D02*
D03*
X42100Y38250D02*
D03*
X38675Y34095D02*
D03*
X49910Y36960D02*
D03*
X40510Y34910D02*
D03*
X48587Y34885D02*
D03*
X45710Y37700D02*
D03*
X44820Y36790D02*
D03*
X40240Y34110D02*
D03*
X48920Y36302D02*
D03*
M02*
