G04*
G04 #@! TF.GenerationSoftware,Altium Limited,Altium Designer,18.1.9 (240)*
G04*
G04 Layer_Color=32768*
%FSLAX24Y24*%
%MOIN*%
G70*
G01*
G75*
%ADD50C,0.0039*%
%ADD51C,0.0020*%
D50*
X39221Y35297D02*
Y36281D01*
X40953Y35297D02*
Y36281D01*
X39221D02*
X40953D01*
X39221Y35297D02*
X40953D01*
X39890Y35789D02*
X40284D01*
X40087Y35593D02*
Y35986D01*
X40953Y36553D02*
Y37537D01*
X39221Y36553D02*
Y37537D01*
Y36553D02*
X40953D01*
X39221Y37537D02*
X40953D01*
X39890Y37045D02*
X40284D01*
X40087Y36848D02*
Y37242D01*
X47485Y37633D02*
Y38617D01*
X45753Y37633D02*
Y38617D01*
Y37633D02*
X47485D01*
X45753Y38617D02*
X47485D01*
X46422Y38125D02*
X46816D01*
X46619Y37928D02*
Y38322D01*
X48115Y37633D02*
Y38617D01*
X49847Y37633D02*
Y38617D01*
X48115D02*
X49847D01*
X48115Y37633D02*
X49847D01*
X48784Y38125D02*
X49178D01*
X48981Y37928D02*
Y38322D01*
X39221Y37808D02*
Y38792D01*
X40953Y37808D02*
Y38792D01*
X39221D02*
X40953D01*
X39221Y37808D02*
X40953D01*
X39890Y38300D02*
X40284D01*
X40087Y38103D02*
Y38497D01*
D51*
X38267Y35129D02*
Y39026D01*
X35665Y35129D02*
X38267D01*
X35665D02*
Y39026D01*
X38267D01*
X35638Y34340D02*
Y34990D01*
X35441Y34340D02*
X35638D01*
X35441Y33474D02*
Y34340D01*
Y33474D02*
X35638D01*
Y32824D02*
Y33474D01*
Y32824D02*
X37036D01*
Y34990D01*
X35638D02*
X37036D01*
X38691Y33273D02*
Y34927D01*
Y33273D02*
X40109D01*
Y34927D01*
X38691D02*
X40109D01*
X49851Y33149D02*
Y37251D01*
X45749Y33149D02*
Y37251D01*
X49851D01*
X45749Y33149D02*
X49851D01*
X37606Y34657D02*
X38294D01*
X37606Y33043D02*
Y34657D01*
Y33043D02*
X38294D01*
Y34657D01*
M02*
